<svg xmlns="http://www.w3.org/2000/svg" viewBox="0 0 140 140" width="140" height="140">
  <defs>
    <clipPath id="clip"><circle cx="70" cy="70" r="64"/></clipPath>
  </defs>
  <circle cx="70" cy="70" r="64" fill="#1A0A0A"/>
  <g clip-path="url(#clip)">
    <rect x="22" y="50" width="76" height="60" rx="8" fill="#C0392B"/>
    <rect x="14" y="56" width="20" height="48" rx="4" fill="#C0392B"/>
    <rect x="26" y="28" width="68" height="30" rx="10" fill="#C0392B"/>
    <rect x="30" y="32" width="44" height="22" rx="6" fill="#5DADE2"/>
    <rect x="32" y="34" width="18" height="8"  rx="2" fill="#AEE6FF" opacity=".7"/>
    <rect x="90" y="46" width="18" height="28" rx="4" fill="#A93226"/>
    <rect x="28" y="108" width="24" height="20" rx="3" fill="#C0392B"/>
    <rect x="64" y="108" width="24" height="20" rx="3" fill="#C0392B"/>
    <rect x="24" y="122" width="30" height="10" rx="3" fill="#922B21"/>
    <rect x="60" y="122" width="30" height="10" rx="3" fill="#922B21"/>
  </g>
  <circle cx="70" cy="70" r="64" fill="none" stroke="#E74C3C" stroke-width="3"/>
</svg>
